<mxfile host="app.diagrams.net" agent="Mozilla/5.0 (Windows NT 10.0; Win64; x64; rv:139.0) Gecko/20100101 Firefox/139.0" version="27.1.4" pages="2">
  <diagram name="LD_LQ1" id="eqfrWE6c0fWMHBoePVck">
    <mxGraphModel dx="703" dy="391" grid="1" gridSize="10" guides="1" tooltips="1" connect="1" arrows="1" fold="1" page="1" pageScale="1" pageWidth="827" pageHeight="1169" math="0" shadow="0">
      <root>
        <mxCell id="0" />
        <mxCell id="1" parent="0" />
        <mxCell id="bxwxST6YBkolYEyv7zZq-1" value="" style="endArrow=classic;html=1;rounded=0;startArrow=classic;startFill=1;" edge="1" parent="1">
          <mxGeometry width="50" height="50" relative="1" as="geometry">
            <mxPoint x="520" y="280" as="sourcePoint" />
            <mxPoint x="280" y="90" as="targetPoint" />
            <Array as="points">
              <mxPoint x="280" y="280" />
            </Array>
          </mxGeometry>
        </mxCell>
        <mxCell id="bxwxST6YBkolYEyv7zZq-4" value="" style="ellipse;whiteSpace=wrap;html=1;fillColor=#6a00ff;fontColor=#ffffff;strokeColor=none;" vertex="1" parent="1">
          <mxGeometry x="351" y="193" width="5" height="5" as="geometry" />
        </mxCell>
        <mxCell id="bxwxST6YBkolYEyv7zZq-5" value="" style="ellipse;whiteSpace=wrap;html=1;fillColor=#6a00ff;fontColor=#ffffff;strokeColor=none;" vertex="1" parent="1">
          <mxGeometry x="300" y="236" width="5" height="5" as="geometry" />
        </mxCell>
        <mxCell id="bxwxST6YBkolYEyv7zZq-7" value="" style="ellipse;whiteSpace=wrap;html=1;fillColor=#6a00ff;fontColor=#ffffff;strokeColor=none;" vertex="1" parent="1">
          <mxGeometry x="389" y="170" width="5" height="5" as="geometry" />
        </mxCell>
        <mxCell id="bxwxST6YBkolYEyv7zZq-8" value="" style="ellipse;whiteSpace=wrap;html=1;fillColor=#6a00ff;fontColor=#ffffff;strokeColor=none;" vertex="1" parent="1">
          <mxGeometry x="421" y="140" width="5" height="5" as="geometry" />
        </mxCell>
        <mxCell id="bxwxST6YBkolYEyv7zZq-9" value="" style="ellipse;whiteSpace=wrap;html=1;fillColor=#6a00ff;fontColor=#ffffff;strokeColor=none;" vertex="1" parent="1">
          <mxGeometry x="455" y="122" width="5" height="5" as="geometry" />
        </mxCell>
        <mxCell id="bxwxST6YBkolYEyv7zZq-10" value="" style="ellipse;whiteSpace=wrap;html=1;fillColor=#6a00ff;fontColor=#ffffff;strokeColor=none;" vertex="1" parent="1">
          <mxGeometry x="327" y="220" width="5" height="5" as="geometry" />
        </mxCell>
        <mxCell id="bxwxST6YBkolYEyv7zZq-11" value="" style="endArrow=none;html=1;rounded=0;fillColor=#d80073;strokeColor=#A50040;" edge="1" parent="1">
          <mxGeometry width="50" height="50" relative="1" as="geometry">
            <mxPoint x="281" y="254" as="sourcePoint" />
            <mxPoint x="490" y="100" as="targetPoint" />
          </mxGeometry>
        </mxCell>
        <mxCell id="bxwxST6YBkolYEyv7zZq-12" value="b + 3S&lt;sub&gt;b&lt;/sub&gt;" style="text;html=1;align=center;verticalAlign=middle;whiteSpace=wrap;rounded=0;fontSize=10;fontStyle=1" vertex="1" parent="1">
          <mxGeometry x="235" y="212" width="40" height="21" as="geometry" />
        </mxCell>
        <mxCell id="bxwxST6YBkolYEyv7zZq-13" value="b" style="text;html=1;align=center;verticalAlign=middle;whiteSpace=wrap;rounded=0;fontSize=10;fontStyle=1" vertex="1" parent="1">
          <mxGeometry x="261" y="243" width="20" height="21" as="geometry" />
        </mxCell>
        <mxCell id="bxwxST6YBkolYEyv7zZq-14" value="b + 10S&lt;sub&gt;b&lt;/sub&gt;" style="text;html=1;align=center;verticalAlign=middle;whiteSpace=wrap;rounded=0;fontSize=10;fontStyle=1" vertex="1" parent="1">
          <mxGeometry x="228" y="162" width="53" height="21" as="geometry" />
        </mxCell>
        <mxCell id="bxwxST6YBkolYEyv7zZq-15" value="Concentration" style="text;html=1;align=center;verticalAlign=middle;resizable=0;points=[];autosize=1;strokeColor=none;fillColor=none;fontSize=10;" vertex="1" parent="1">
          <mxGeometry x="430" y="273" width="90" height="30" as="geometry" />
        </mxCell>
        <mxCell id="bxwxST6YBkolYEyv7zZq-17" value="Signal" style="text;html=1;align=center;verticalAlign=middle;resizable=0;points=[];autosize=1;strokeColor=none;fillColor=none;fontSize=10;" vertex="1" parent="1">
          <mxGeometry x="274" y="73" width="50" height="30" as="geometry" />
        </mxCell>
        <mxCell id="bxwxST6YBkolYEyv7zZq-18" value="" style="endArrow=none;dashed=1;html=1;strokeWidth=1;rounded=0;dashPattern=1 2;" edge="1" parent="1">
          <mxGeometry width="50" height="50" relative="1" as="geometry">
            <mxPoint x="280" y="225" as="sourcePoint" />
            <mxPoint x="320" y="280" as="targetPoint" />
            <Array as="points">
              <mxPoint x="320" y="225" />
            </Array>
          </mxGeometry>
        </mxCell>
        <mxCell id="bxwxST6YBkolYEyv7zZq-19" value="" style="endArrow=none;dashed=1;html=1;strokeWidth=1;rounded=0;dashPattern=1 2;" edge="1" parent="1">
          <mxGeometry width="50" height="50" relative="1" as="geometry">
            <mxPoint x="280" y="178" as="sourcePoint" />
            <mxPoint x="385" y="281" as="targetPoint" />
            <Array as="points">
              <mxPoint x="384" y="179" />
            </Array>
          </mxGeometry>
        </mxCell>
        <mxCell id="bxwxST6YBkolYEyv7zZq-20" value="L&lt;sub&gt;D&lt;/sub&gt;" style="text;html=1;align=center;verticalAlign=middle;resizable=0;points=[];autosize=1;strokeColor=none;fillColor=none;fontStyle=1;fontSize=10;" vertex="1" parent="1">
          <mxGeometry x="299" y="274" width="40" height="30" as="geometry" />
        </mxCell>
        <mxCell id="bxwxST6YBkolYEyv7zZq-21" value="L&lt;sub&gt;Q&lt;/sub&gt;" style="text;html=1;align=center;verticalAlign=middle;resizable=0;points=[];autosize=1;strokeColor=none;fillColor=none;fontStyle=1;fontSize=10;" vertex="1" parent="1">
          <mxGeometry x="365" y="274" width="40" height="30" as="geometry" />
        </mxCell>
        <mxCell id="bxwxST6YBkolYEyv7zZq-24" value="" style="group" vertex="1" connectable="0" parent="1">
          <mxGeometry x="348" y="276" width="10" height="9" as="geometry" />
        </mxCell>
        <mxCell id="bxwxST6YBkolYEyv7zZq-22" value="" style="endArrow=none;html=1;rounded=0;strokeWidth=0.5;" edge="1" parent="bxwxST6YBkolYEyv7zZq-24">
          <mxGeometry width="50" height="50" relative="1" as="geometry">
            <mxPoint x="2" y="9" as="sourcePoint" />
            <mxPoint x="10" y="3" as="targetPoint" />
          </mxGeometry>
        </mxCell>
        <mxCell id="bxwxST6YBkolYEyv7zZq-23" value="" style="endArrow=none;html=1;rounded=0;strokeWidth=0.5;" edge="1" parent="bxwxST6YBkolYEyv7zZq-24">
          <mxGeometry width="50" height="50" relative="1" as="geometry">
            <mxPoint y="6" as="sourcePoint" />
            <mxPoint x="8" as="targetPoint" />
          </mxGeometry>
        </mxCell>
        <mxCell id="bxwxST6YBkolYEyv7zZq-25" value="" style="group" vertex="1" connectable="0" parent="1">
          <mxGeometry x="275" y="197" width="10" height="9" as="geometry" />
        </mxCell>
        <mxCell id="bxwxST6YBkolYEyv7zZq-26" value="" style="endArrow=none;html=1;rounded=0;strokeWidth=0.5;" edge="1" parent="bxwxST6YBkolYEyv7zZq-25">
          <mxGeometry width="50" height="50" relative="1" as="geometry">
            <mxPoint x="2" y="9" as="sourcePoint" />
            <mxPoint x="10" y="3" as="targetPoint" />
          </mxGeometry>
        </mxCell>
        <mxCell id="bxwxST6YBkolYEyv7zZq-27" value="" style="endArrow=none;html=1;rounded=0;strokeWidth=0.5;" edge="1" parent="bxwxST6YBkolYEyv7zZq-25">
          <mxGeometry width="50" height="50" relative="1" as="geometry">
            <mxPoint y="6" as="sourcePoint" />
            <mxPoint x="8" as="targetPoint" />
          </mxGeometry>
        </mxCell>
      </root>
    </mxGraphModel>
  </diagram>
  <diagram id="k1quoIx1TesxO9Up1QIE" name="LD_LQ2">
    <mxGraphModel dx="1055" dy="586" grid="1" gridSize="10" guides="1" tooltips="1" connect="1" arrows="1" fold="1" page="1" pageScale="1" pageWidth="827" pageHeight="1169" math="0" shadow="0">
      <root>
        <mxCell id="0" />
        <mxCell id="1" parent="0" />
        <mxCell id="hzwozJXYt_BTm_VkO_eK-3" value="" style="endArrow=classic;html=1;rounded=0;" edge="1" parent="1">
          <mxGeometry width="50" height="50" relative="1" as="geometry">
            <mxPoint x="160" y="220" as="sourcePoint" />
            <mxPoint x="660" y="220" as="targetPoint" />
          </mxGeometry>
        </mxCell>
        <mxCell id="hzwozJXYt_BTm_VkO_eK-1" value="Zone de dÃ©tection" style="rounded=0;whiteSpace=wrap;html=1;fillColor=#647687;fontColor=#ffffff;strokeColor=#314354;fontStyle=1" vertex="1" parent="1">
          <mxGeometry x="200" y="200" width="80" height="40" as="geometry" />
        </mxCell>
        <mxCell id="hzwozJXYt_BTm_VkO_eK-2" value="Intervalle de mesure" style="rounded=0;whiteSpace=wrap;html=1;fillColor=#0050ef;fontColor=#ffffff;strokeColor=#001DBC;fontStyle=1" vertex="1" parent="1">
          <mxGeometry x="280" y="200" width="280" height="40" as="geometry" />
        </mxCell>
        <mxCell id="hzwozJXYt_BTm_VkO_eK-4" value="mesures" style="text;html=1;align=center;verticalAlign=middle;whiteSpace=wrap;rounded=0;fontSize=10;" vertex="1" parent="1">
          <mxGeometry x="600" y="198" width="60" height="30" as="geometry" />
        </mxCell>
        <mxCell id="oxyNd50CqW_RcGBrxLZi-1" value="L&lt;sub&gt;D&lt;/sub&gt;" style="text;html=1;align=center;verticalAlign=middle;resizable=0;points=[];autosize=1;strokeColor=none;fillColor=none;fontStyle=1;fontSize=12;" vertex="1" parent="1">
          <mxGeometry x="180" y="240" width="40" height="30" as="geometry" />
        </mxCell>
        <mxCell id="oxyNd50CqW_RcGBrxLZi-2" value="L&lt;sub&gt;Q&lt;/sub&gt;" style="text;html=1;align=center;verticalAlign=middle;resizable=0;points=[];autosize=1;strokeColor=none;fillColor=none;fontStyle=1;fontSize=12;" vertex="1" parent="1">
          <mxGeometry x="260" y="240" width="40" height="30" as="geometry" />
        </mxCell>
        <mxCell id="oxyNd50CqW_RcGBrxLZi-3" value="L&lt;sub&gt;S&lt;/sub&gt;" style="text;html=1;align=center;verticalAlign=middle;resizable=0;points=[];autosize=1;strokeColor=none;fillColor=none;fontStyle=1;fontSize=12;" vertex="1" parent="1">
          <mxGeometry x="540" y="240" width="40" height="30" as="geometry" />
        </mxCell>
        <mxCell id="oxyNd50CqW_RcGBrxLZi-5" value="" style="endArrow=none;html=1;rounded=0;strokeWidth=2.5;fillColor=#d80073;strokeColor=#A50040;" edge="1" parent="1">
          <mxGeometry width="50" height="50" relative="1" as="geometry">
            <mxPoint x="280" y="240" as="sourcePoint" />
            <mxPoint x="280" y="200" as="targetPoint" />
          </mxGeometry>
        </mxCell>
        <mxCell id="oxyNd50CqW_RcGBrxLZi-6" value="" style="endArrow=none;html=1;rounded=0;strokeWidth=2.5;fillColor=#d80073;strokeColor=#A50040;" edge="1" parent="1">
          <mxGeometry width="50" height="50" relative="1" as="geometry">
            <mxPoint x="560" y="240" as="sourcePoint" />
            <mxPoint x="560" y="200" as="targetPoint" />
          </mxGeometry>
        </mxCell>
        <mxCell id="oxyNd50CqW_RcGBrxLZi-7" value="" style="endArrow=none;html=1;rounded=0;strokeWidth=2.5;fillColor=#d80073;strokeColor=#A50040;" edge="1" parent="1">
          <mxGeometry width="50" height="50" relative="1" as="geometry">
            <mxPoint x="200" y="240" as="sourcePoint" />
            <mxPoint x="200" y="200" as="targetPoint" />
          </mxGeometry>
        </mxCell>
      </root>
    </mxGraphModel>
  </diagram>
</mxfile>
